<?xml version="1.0" encoding="utf-8"?>
<svg viewBox="214.341 161.9081 44.4092 42.8555" width="44.4092" height="42.8555" xmlns="http://www.w3.org/2000/svg">
  <path stroke-width="0" d="M 237.106 163.309 C 237.868 163.216 238.501 163.267 239.214 163.411 C 239.962 163.561 240.807 163.875 241.493 164.223 C 242.131 164.546 242.695 164.946 243.214 165.391 C 243.717 165.822 244.173 166.324 244.568 166.838 C 244.95 167.334 245.277 167.865 245.558 168.413 C 245.834 168.949 246.052 169.457 246.246 170.088 C 246.463 170.794 246.671 171.696 246.762 172.474 C 246.849 173.217 246.851 173.954 246.805 174.659 C 246.761 175.34 246.642 176.034 246.504 176.638 C 246.378 177.194 246.243 177.635 246.031 178.162 C 245.796 178.747 245.481 179.421 245.128 179.99 C 244.772 180.563 244.338 181.122 243.902 181.59 C 243.483 182.04 243.041 182.42 242.568 182.758 C 242.095 183.096 241.618 183.388 241.063 183.621 C 240.465 183.872 239.734 184.079 239.085 184.179 C 238.46 184.275 237.803 184.271 237.235 184.23 C 236.722 184.193 236.293 184.115 235.816 183.977 C 235.319 183.831 234.824 183.643 234.31 183.367 C 233.75 183.064 233.114 182.649 232.59 182.199 C 232.077 181.758 231.615 181.264 231.192 180.701 C 230.76 180.124 230.333 179.389 230.031 178.771 C 229.764 178.226 229.596 177.78 229.429 177.197 C 229.245 176.556 229.077 175.784 228.999 175.065 C 228.92 174.345 228.91 173.586 228.955 172.881 C 229 172.2 229.119 171.506 229.257 170.901 C 229.383 170.346 229.519 169.904 229.73 169.377 C 229.965 168.791 230.28 168.119 230.633 167.549 C 230.989 166.975 231.331 166.472 231.859 165.95 C 232.491 165.325 233.397 164.562 234.267 164.122 C 235.144 163.679 236.238 163.416 237.106 163.309 Z" style="stroke-width: 2px; fill: rgb(79, 51, 74); stroke: rgb(79, 51, 74);" transform="matrix(0.9999999999999999, 0, 0, 0.9999999999999999, 0, 0)"/>
  <path style="stroke: rgb(0, 0, 0); fill: rgb(79, 51, 74);" d="M 228.268 170.152 C 227.957 169.738 237.809 151.763 250.839 170.227" transform="matrix(0.9999999999999999, 0, 0, 0.9999999999999999, 0, 0)"/>
  <g transform="matrix(0.9999999999999999, 0, 0, 0.9999999999999999, -0.5799329280853271, -1.9883430004119873)">
    <g>
      <g>
        <path style="fill: rgb(216, 216, 216); fill-opacity: 0; stroke: rgb(79, 51, 74); stroke-linecap: round; stroke-linejoin: round; stroke-width: 1.5px;" d="M 236.615 190.75 L 236.781 204.006 L 240.426 204.752"/>
      </g>
    </g>
  </g>
  <g transform="matrix(0.9999999999999999, 0, 0, 0.9999999999999999, 9.900249481201172, -7.580842971801758)">
    <g>
      <g>
        <path style="fill: rgb(216, 216, 216); fill-opacity: 0; stroke: rgb(79, 51, 74); stroke-linecap: round; stroke-linejoin: round; stroke-width: 1.5px;" d="M 233.219 194.478 L 233.385 206.905 L 237.444 207.734"/>
      </g>
    </g>
  </g>
  <path style="stroke: rgb(0, 0, 0); fill: rgb(79, 51, 74);" d="M 219.105 187.084 C 217.51 197.517 250.301 195.869 249.741 187.523 C 249.181 179.177 250.187 183.771 246.661 176.382" transform="matrix(0.9999999999999999, 0, 0, 0.9999999999999999, 0, 0)"/>
  <path style="stroke: rgb(0, 0, 0); stroke-opacity: 1; fill: rgb(119, 72, 110);" d="M 228.412 170.373 C 228.412 170.373 228.925 184.664 214.341 184.518 C 231.264 196.835 245.683 182.873 228.412 170.373 Z" transform="matrix(0.9999999999999999, 0, 0, 0.9999999999999999, 0, 0)"/>
  <path style="stroke: rgb(0, 0, 0); fill: rgb(113, 138, 157);" d="M 242.631 174.918 C 242.193 174.657 250.363 180.015 255.823 174.552 C 261.283 169.089 240.768 168.106 242.631 174.918 Z" transform="matrix(0.9999999999999999, 0, 0, 0.9999999999999999, 0, 0)"/>
  <path style="stroke: rgb(255, 0, 0); paint-order: fill; fill-rule: nonzero; fill: rgb(255, 0, 0);" d="M 238.38 170.667 C 238.211 168.699 241.505 167.282 242.271 169.861 C 243.037 172.44 238.982 172.419 238.38 170.667 Z" transform="matrix(0.9999999999999999, 0, 0, 0.9999999999999999, 0, 0)"/>
</svg>